<svg width="319" height="47" viewBox="0 0 319 47" fill="none" xmlns="http://www.w3.org/2000/svg">
<rect width="47" height="47" rx="23.5" fill="white"/>
<path fill-rule="evenodd" clip-rule="evenodd" d="M37.8116 24.4124C37.8116 23.3987 37.7206 22.424 37.5517 21.4883H24.0876V27.0182H31.7814C31.45 28.8051 30.4428 30.3192 28.9287 31.3329V34.9199H33.5488C36.2521 32.4311 37.8116 28.7661 37.8116 24.4124Z" fill="black"/>
<path fill-rule="evenodd" clip-rule="evenodd" d="M24.0876 38.3833C27.9475 38.3833 31.1836 37.1032 33.5489 34.9198L28.9287 31.3329C27.6486 32.1906 26.0111 32.6975 24.0876 32.6975C20.3642 32.6975 17.2126 30.1827 16.0885 26.8037H11.3124V30.5076C13.6647 35.1798 18.4993 38.3833 24.0876 38.3833Z" fill="black"/>
<path fill-rule="evenodd" clip-rule="evenodd" d="M16.0883 26.8037C15.8024 25.946 15.64 25.0297 15.64 24.0875C15.64 23.1453 15.8024 22.2291 16.0883 21.3713V17.6674H11.3122C10.344 19.5973 9.79167 21.7807 9.79167 24.0875C9.79167 26.3943 10.344 28.5777 11.3122 30.5077L16.0883 26.8037Z" fill="black"/>
<path fill-rule="evenodd" clip-rule="evenodd" d="M24.0876 15.4775C26.1865 15.4775 28.071 16.1988 29.5526 17.6154L33.6529 13.5151C31.1771 11.2083 27.941 9.79167 24.0876 9.79167C18.4993 9.79167 13.6647 12.9952 11.3124 17.6674L16.0885 21.3713C17.2126 17.9923 20.3642 15.4775 24.0876 15.4775Z" fill="black"/>
<rect x="67.8889" width="47" height="47" rx="23.5" fill="white"/>
<path d="M87.0884 35.8963C97.5106 35.8963 103.209 27.26 103.209 19.7753C103.209 19.5285 103.209 19.2818 103.198 19.0468C104.302 18.2478 105.266 17.249 106.029 16.1093C105.019 16.5558 103.926 16.8613 102.775 17.0023C103.95 16.2973 104.843 15.1928 105.266 13.865C104.173 14.5113 102.963 14.9813 101.67 15.2398C100.636 14.1353 99.1674 13.4538 97.5341 13.4538C94.4086 13.4538 91.8706 15.9918 91.8706 19.1173C91.8706 19.5638 91.9176 19.9985 92.0234 20.4098C87.3116 20.1748 83.1404 17.9188 80.3439 14.4878C79.8621 15.322 79.5801 16.2973 79.5801 17.3313C79.5801 19.2935 80.5789 21.0325 82.1064 22.043C81.1781 22.0195 80.3086 21.761 79.5449 21.338C79.5449 21.3615 79.5449 21.385 79.5449 21.4085C79.5449 24.158 81.4954 26.4375 84.0921 26.9663C83.6221 27.0955 83.1169 27.166 82.5999 27.166C82.2356 27.166 81.8831 27.1308 81.5306 27.0603C82.2474 29.3163 84.3389 30.9495 86.8181 30.9965C84.8794 32.5123 82.4354 33.417 79.7799 33.417C79.3216 33.417 78.8751 33.3935 78.4286 33.3348C80.9079 34.9563 83.8924 35.8963 87.0884 35.8963Z" fill="black"/>
<rect x="135.778" width="47" height="47" rx="23.5" fill="white"/>
<path d="M169.201 13.5682C167.422 12.7266 165.514 12.1066 163.519 11.7515C163.482 11.7446 163.446 11.7618 163.427 11.796C163.182 12.2459 162.91 12.8328 162.72 13.2941C160.574 12.963 158.44 12.963 156.338 13.2941C156.148 12.8225 155.866 12.2459 155.62 11.796C155.601 11.7629 155.565 11.7458 155.528 11.7515C153.534 12.1055 151.627 12.7255 149.846 13.5682C149.831 13.575 149.818 13.5864 149.809 13.6013C146.19 19.1746 145.198 24.6109 145.685 29.9798C145.687 30.0061 145.701 30.0312 145.721 30.0472C148.109 31.8547 150.422 32.952 152.692 33.6793C152.728 33.6908 152.766 33.6771 152.79 33.6462C153.326 32.8904 153.805 32.0934 154.216 31.2552C154.24 31.2061 154.217 31.1479 154.167 31.1285C153.408 30.8316 152.685 30.4696 151.99 30.0586C151.935 30.0255 151.93 29.9444 151.981 29.9056C152.127 29.7925 152.274 29.6749 152.413 29.5562C152.439 29.5345 152.474 29.5299 152.503 29.5436C157.072 31.6937 162.018 31.6937 166.532 29.5436C166.562 29.5288 166.597 29.5333 166.624 29.555C166.764 29.6738 166.91 29.7925 167.057 29.9056C167.108 29.9444 167.105 30.0255 167.05 30.0586C166.354 30.4776 165.631 30.8316 164.871 31.1273C164.822 31.1468 164.8 31.2061 164.824 31.2552C165.243 32.0922 165.722 32.8892 166.249 33.6451C166.271 33.6771 166.31 33.6908 166.347 33.6793C168.627 32.952 170.94 31.8547 173.328 30.0472C173.349 30.0312 173.362 30.0072 173.364 29.9809C173.946 23.7739 172.389 18.3821 169.237 13.6024C169.229 13.5864 169.216 13.575 169.201 13.5682ZM154.898 26.7107C153.522 26.7107 152.389 25.409 152.389 23.8104C152.389 22.2119 153.5 20.9102 154.898 20.9102C156.306 20.9102 157.428 22.2233 157.406 23.8104C157.406 25.409 156.295 26.7107 154.898 26.7107ZM164.173 26.7107C162.798 26.7107 161.665 25.409 161.665 23.8104C161.665 22.2119 162.776 20.9102 164.173 20.9102C165.582 20.9102 166.704 22.2233 166.682 23.8104C166.682 25.409 165.582 26.7107 164.173 26.7107Z" fill="black"/>
<rect x="271.556" width="47" height="47" rx="23.5" fill="white"/>
<g clip-path="url(#clip0_2_92)">
<path d="M281.347 13.4492C281.347 12.567 281.656 11.8393 282.273 11.2659C282.891 10.6925 283.694 10.4058 284.682 10.4058C285.652 10.4058 286.437 10.6881 287.037 11.2527C287.654 11.8349 287.963 12.5935 287.963 13.5286C287.963 14.3754 287.663 15.0811 287.063 15.6457C286.446 16.2279 285.634 16.519 284.629 16.519H284.602C283.632 16.519 282.847 16.2279 282.247 15.6457C281.647 15.0635 281.347 14.3313 281.347 13.4492ZM281.691 36.6051V18.9272H287.566V36.6051H281.691ZM290.821 36.6051H296.696V26.7341C296.696 26.1166 296.767 25.6402 296.908 25.305C297.155 24.7052 297.53 24.1979 298.033 23.7833C298.536 23.3687 299.166 23.1614 299.925 23.1614C301.901 23.1614 302.889 24.4934 302.889 27.1575V36.6051H308.764V26.4694C308.764 23.8583 308.146 21.8779 306.911 20.5283C305.676 19.1786 304.044 18.5038 302.016 18.5038C299.74 18.5038 297.967 19.4829 296.696 21.4413V21.4942H296.67L296.696 21.4413V18.9272H290.821C290.857 19.4918 290.874 21.2472 290.874 24.1935C290.874 27.1398 290.857 31.277 290.821 36.6051Z" fill="black"/>
</g>
<rect x="203" width="47" height="47" rx="23.5" fill="white"/>
<path d="M233.234 26.2155L234.038 20.926H229.013V17.4949C229.013 16.0474 229.713 14.6357 231.964 14.6357H234.25V10.1324C234.25 10.1324 232.176 9.77499 230.195 9.77499C226.054 9.77499 223.35 12.309 223.35 16.8945V20.926H218.75V26.2155H223.35V39.0034C224.274 39.1499 225.219 39.225 226.182 39.225C227.144 39.225 228.089 39.1499 229.013 39.0034V26.2155H233.234Z" fill="black"/>
<defs>
<clipPath id="clip0_2_92">
<rect x="281.347" y="9.79167" width="27.4167" height="27.4167" fill="white"/>
</clipPath>
</defs>
</svg>
