<svg width="97" height="32" viewBox="0 0 97 32" fill="none" xmlns="http://www.w3.org/2000/svg">
<mask id="mask0_2_119" style="mask-type:alpha" maskUnits="userSpaceOnUse" x="0" y="7" width="95" height="18">
<path d="M94.8842 7.47736H0V24.6556H94.8842V7.47736Z" fill="white"/>
</mask>
<g mask="url(#mask0_2_119)">
<path fill-rule="evenodd" clip-rule="evenodd" d="M48.0053 22.2538C47.3797 22.2538 46.8062 22.1225 46.2848 21.8599C45.9906 21.7084 45.735 21.5283 45.518 21.3197C45.3809 21.1879 45.1031 21.2773 45.1031 21.4661V21.7479C45.1031 21.8759 44.9977 21.9798 44.8678 21.9798H43.7394C43.6095 21.9798 43.5042 21.8759 43.5042 21.7479V9.94793C43.5042 9.81987 43.6095 9.71609 43.7394 9.71609H44.8625C44.9924 9.71609 45.0977 9.81987 45.0977 9.94793V14.1011C45.0977 14.2899 45.3763 14.3798 45.5138 14.2484C45.7326 14.0395 45.9902 13.8591 46.2848 13.7073C46.8062 13.4447 47.3797 13.3134 48.0053 13.3134C49.1292 13.3134 50.0792 13.7473 50.8555 14.6151C51.6549 15.4942 52.0546 16.5505 52.0546 17.7836C52.0546 19.0282 51.6549 20.0843 50.8555 20.9521C50.0792 21.8199 49.1292 22.2538 48.0053 22.2538ZM47.7446 20.8151C48.5094 20.8151 49.1523 20.5297 49.6737 19.9588C50.1951 19.3993 50.4558 18.6742 50.4558 17.7836C50.4558 16.9045 50.1951 16.1794 49.6737 15.6085C49.1523 15.0375 48.5094 14.7521 47.7446 14.7521C46.9684 14.7521 46.3196 15.0375 45.7982 15.6085C45.2884 16.1794 45.0336 16.9045 45.0336 17.7836C45.0336 18.6742 45.2884 19.405 45.7982 19.9759C46.3196 20.5353 46.9684 20.8151 47.7446 20.8151ZM38.0101 22.2538C36.7588 22.2538 35.7277 21.8313 34.9167 20.9864C34.1057 20.1415 33.7002 19.0739 33.7002 17.7836C33.7002 16.5048 34.0941 15.4429 34.8819 14.5979C35.6698 13.7416 36.6777 13.3134 37.9059 13.3134C39.1687 13.3134 40.1709 13.7187 40.9124 14.5294C41.7115 15.3775 42.0935 16.6531 42.0435 17.8133C42.037 17.962 41.9096 18.0748 41.7585 18.0748H35.621C35.4636 18.0748 35.3361 18.203 35.3525 18.3573C35.4256 19.0499 35.6975 19.618 36.1679 20.0615C36.7009 20.5639 37.3381 20.8151 38.0796 20.8151C39.0257 20.8151 39.7822 20.3826 40.3492 19.5175C40.4249 19.4019 40.5757 19.3549 40.7014 19.4153L41.6566 19.8745C41.7912 19.9393 41.8453 20.1016 41.7672 20.2277C41.398 20.8245 40.9102 21.3 40.3041 21.6544C39.6322 22.054 38.8675 22.2538 38.0101 22.2538ZM35.5479 16.4423C35.4913 16.6094 35.6249 16.7731 35.8037 16.7731H40.0368C40.1997 16.7731 40.3299 16.6356 40.2968 16.4784C40.2019 16.027 39.9726 15.6456 39.609 15.3344C39.1803 14.9462 38.601 14.7521 37.8711 14.7521C37.2686 14.7521 36.7473 14.9347 36.307 15.3002C35.958 15.5976 35.7049 15.9784 35.5479 16.4423ZM33.21 13.9094C33.2621 13.7503 33.1416 13.5874 32.9721 13.5874H31.8687C31.7578 13.5874 31.6602 13.6594 31.6289 13.7642L30.0014 19.2088C29.9361 19.4272 29.6239 19.4317 29.5521 19.2154L27.7409 13.7572C27.7073 13.6559 27.6114 13.5874 27.5033 13.5874H26.2143C26.1064 13.5874 26.0108 13.6556 25.9769 13.7566L24.1494 19.219C24.0771 19.4349 23.7655 19.43 23.7003 19.2119L22.0719 13.7642C22.0405 13.6594 21.9429 13.5874 21.832 13.5874H20.6938C20.5243 13.5874 20.4039 13.7503 20.456 13.9094L23.0406 21.809C23.0739 21.9108 23.1701 21.9798 23.2786 21.9798H24.5306C24.6391 21.9798 24.7353 21.9107 24.7686 21.8089L26.5926 16.2229C26.6625 16.0088 26.9698 16.0084 27.0403 16.2224L28.8798 21.8094C28.9132 21.9111 29.0092 21.9798 29.1175 21.9798H30.3874C30.496 21.9798 30.592 21.9108 30.6253 21.809L33.21 13.9094ZM82.7475 21.4831C83.2105 21.9056 83.7897 22.1168 84.4847 22.1168C84.9455 22.1168 85.3572 22.066 85.722 21.9644C85.8466 21.9298 85.9094 21.7971 85.8664 21.677L85.5258 20.7261C85.4795 20.5986 85.3335 20.5371 85.2023 20.5779C85.167 20.5889 85.1307 20.5995 85.0937 20.6096C84.9769 20.6325 84.8556 20.6438 84.7278 20.6438C84.45 20.6438 84.2009 20.5468 83.981 20.3527C83.7605 20.1472 83.6508 19.7646 83.6508 19.2052V15.2579C83.6508 15.1299 83.7561 15.0261 83.8862 15.0261H85.501C85.6311 15.0261 85.7364 14.9223 85.7364 14.7943V13.8193C85.7364 13.6912 85.6311 13.5874 85.501 13.5874H83.8862C83.7561 13.5874 83.6508 13.4837 83.6508 13.3556V9.94793C83.6508 9.81987 83.5456 9.71609 83.415 9.71609H82.2868C82.1573 9.71609 82.052 9.81987 82.052 9.94793V13.3556C82.052 13.4837 81.9467 13.5874 81.8161 13.5874H80.7927C80.6626 13.5874 80.5573 13.6912 80.5573 13.8193V14.7943C80.5573 14.9223 80.6626 15.0261 80.7927 15.0261H81.8161C81.9467 15.0261 82.052 15.1299 82.052 15.2579V19.719C82.063 20.4726 82.2951 21.0606 82.7475 21.4831ZM59.9129 21.2262C60.6894 20.5411 61.0774 19.6848 61.0774 18.6571C61.0774 18.0291 60.8977 17.4639 60.5384 16.9615C60.3731 16.7227 60.1361 16.4189 59.4394 16.0342C59.2923 15.9529 59.2884 15.7363 59.4279 15.6423C60.2612 15.0794 60.6778 14.2273 60.6778 13.2278C60.6778 12.2801 60.324 11.5093 59.6174 10.9156C58.8993 10.299 58.0131 9.99069 56.9588 9.99069C56.1128 9.99069 55.377 10.2134 54.7515 10.6587C54.1937 11.0555 53.7793 11.5611 53.5065 12.1755C53.4502 12.3027 53.5153 12.4482 53.6448 12.5024L54.633 12.9147C54.773 12.9731 54.9328 12.9029 54.9951 12.7666C55.3847 11.9208 56.0389 11.4979 56.9588 11.4979C57.5843 11.4979 58.088 11.6578 58.4705 11.9774C58.853 12.2972 59.0437 12.7139 59.0437 13.2278C59.0437 13.7873 58.8415 14.244 58.4358 14.5979C58.0302 14.9405 57.5088 15.1118 56.8717 15.1118H56.2324C56.0863 15.1118 55.9678 15.2285 55.9678 15.3726V16.3239C55.9678 16.4679 56.0863 16.5847 56.2324 16.5847H56.9935C57.6653 16.5847 58.2385 16.7846 58.7136 17.1841C59.2002 17.5838 59.4438 18.0748 59.4438 18.6571C59.4438 19.2394 59.2118 19.7361 58.7483 20.1472C58.2732 20.5468 57.7116 20.7466 57.0629 20.7466C56.4721 20.7466 55.9623 20.5754 55.5335 20.2328C55.1786 19.9315 54.9074 19.5227 54.7201 19.0063C54.6666 18.8589 54.5007 18.7787 54.3541 18.8389L53.3874 19.2358C53.2634 19.2867 53.1967 19.4213 53.2403 19.5465C53.5103 20.3248 53.9793 20.9647 54.6473 21.466C55.3654 21.9912 56.1706 22.2538 57.0629 22.2538C58.1983 22.2538 59.1484 21.9113 59.9129 21.2262ZM63.9147 19.4107C63.9147 18.9539 64.129 18.5714 64.5573 18.2631C64.9976 17.9549 65.5422 17.8007 66.1909 17.8007C67.0236 17.8007 67.6844 17.9697 68.1738 18.3077C68.24 18.3534 68.2775 18.4296 68.273 18.5093C68.2411 19.1189 67.976 19.6534 67.4772 20.113C66.9558 20.6039 66.3589 20.8493 65.6871 20.8493C65.212 20.8493 64.7948 20.7124 64.436 20.4384C64.0883 20.1643 63.9147 19.8218 63.9147 19.4107ZM68.7806 14.2554C68.0972 13.6274 67.1642 13.3134 65.9825 13.3134C64.5578 13.3134 63.46 13.7964 62.6884 14.7623C62.6052 14.8663 62.6366 15.0166 62.7501 15.0871L63.7587 15.7128C63.8651 15.7789 64.005 15.7499 64.0839 15.653C64.5898 15.0295 65.2517 14.7178 66.0696 14.7178C66.6604 14.7178 67.1757 14.912 67.6161 15.3002C68.0592 15.6793 68.2163 16.1351 68.2609 16.6499C68.2764 16.8268 68.0807 16.9413 67.9143 16.8728C67.3637 16.6465 66.7029 16.5333 65.9302 16.5333C64.818 16.5333 63.9262 16.7902 63.2538 17.3041C62.5936 17.8178 62.2635 18.5086 62.2635 19.3765C62.2635 20.1985 62.5765 20.8837 63.202 21.4317C63.8392 21.9798 64.6267 22.2538 65.5653 22.2538C66.6659 22.2538 67.5466 21.7742 68.2069 20.8151V21.7479C68.2069 21.8759 68.3122 21.9798 68.4422 21.9798H69.5704C69.7005 21.9798 69.8058 21.8759 69.8058 21.7479V16.8074C69.8058 15.7227 69.4641 14.872 68.7806 14.2554ZM79.0825 21.7334C79.0825 21.8695 78.9706 21.9798 78.8328 21.9798H77.7333C77.5955 21.9798 77.4836 21.8695 77.4836 21.7334V21.4583C77.4836 21.2808 77.2108 21.1957 77.0824 21.3202C76.8807 21.5157 76.6382 21.6899 76.3538 21.8428C75.8556 22.1168 75.3342 22.2538 74.7897 22.2538C73.7469 22.2538 72.9417 21.9627 72.374 21.3803C71.818 20.7866 71.5396 19.9474 71.5396 18.8626V13.8338C71.5396 13.6977 71.6515 13.5874 71.7898 13.5874H72.8888C73.0266 13.5874 73.1385 13.6977 73.1385 13.8338V18.7599C73.1732 20.1301 73.8742 20.8151 75.2411 20.8151C75.8787 20.8151 76.4117 20.5639 76.8399 20.0615C77.2692 19.5477 77.4836 18.9368 77.4836 18.2289V13.8338C77.4836 13.6977 77.5955 13.5874 77.7333 13.5874H78.8328C78.9706 13.5874 79.0825 13.6977 79.0825 13.8338V21.7334ZM87.3418 9.94793C87.3418 9.81987 87.4471 9.71609 87.5777 9.71609H88.7059C88.8354 9.71609 88.9407 9.81987 88.9407 9.94793V14.1089C88.9407 14.2864 89.2118 14.3708 89.3397 14.2455C89.5381 14.0506 89.7762 13.8769 90.0534 13.7244C90.5627 13.4504 91.0895 13.3134 91.6346 13.3134C92.6774 13.3134 93.4765 13.6103 94.0326 14.204C94.6003 14.7863 94.8841 15.6199 94.8841 16.7046V21.7479C94.8841 21.8759 94.7788 21.9798 94.6493 21.9798H93.5212C93.3905 21.9798 93.2853 21.8759 93.2853 21.7479V17.0129C93.2853 15.5057 92.6079 14.7521 91.2521 14.7521C90.6034 14.7521 90.0534 15.0204 89.6015 15.557C89.1611 16.0823 88.9407 16.6989 88.9407 17.4068V21.7479C88.9407 21.8759 88.8354 21.9798 88.7059 21.9798H87.5777C87.4471 21.9798 87.3418 21.8759 87.3418 21.7479V9.94793Z" fill="white"/>
<path d="M14.1712 20.6495C14.2643 20.9975 14.7571 20.9975 14.8502 20.6495L17.5293 10.6304C17.6527 10.1691 17.3058 9.71609 16.8291 9.71609H15.1773C14.8492 9.71609 14.562 9.9369 14.4771 10.2544L12.9663 15.9043C12.9454 15.9827 12.9454 16.0652 12.9663 16.1436L14.1712 20.6495Z" fill="#0364FF"/>
<path d="M4.80788 15.8971C4.82883 15.9754 4.82883 16.0579 4.80788 16.1363L3.60299 20.6421C3.5099 20.9901 3.01709 20.9901 2.92403 20.6421L0.246838 10.6304C0.123483 10.1691 0.470385 9.71609 0.947007 9.71609H2.59885C2.92693 9.71609 3.2141 9.9369 3.29901 10.2544L4.80788 15.8971Z" fill="#0364FF"/>
<path d="M7.06708 22.8518C6.98507 23.1594 6.70774 23.3733 6.39089 23.3733H4.7005C4.24019 23.3733 3.90515 22.9344 4.02431 22.4876L7.27722 10.2864C7.36689 9.94997 7.67024 9.71609 8.01679 9.71609H9.98286C10.3294 9.71609 10.6328 9.94997 10.7225 10.2864L13.9754 22.4876C14.0945 22.9344 13.7594 23.3733 13.2992 23.3733H11.6087C11.2919 23.3733 11.0145 23.1594 10.9325 22.8518L9.32734 16.8309C9.23751 16.4941 8.76204 16.4941 8.67232 16.8309L7.06708 22.8518Z" fill="#0364FF"/>
<path d="M8.40594 21.5824C8.28496 21.5824 8.19689 21.473 8.22825 21.3617L8.82182 19.2496C8.87054 19.0763 9.12853 19.0763 9.17731 19.2496L9.77094 21.3617C9.8023 21.473 9.71422 21.5824 9.59325 21.5824H8.40594Z" fill="#0364FF"/>
</g>
</svg>
