<svg width="99" height="33" viewBox="0 0 99 33" fill="none" xmlns="http://www.w3.org/2000/svg">
<mask id="mask0_2_106" style="mask-type:alpha" maskUnits="userSpaceOnUse" x="2" y="7" width="97" height="19">
<path d="M98.9005 7.71103H2.05994V25.4261H98.9005V7.71103Z" fill="white"/>
</mask>
<g mask="url(#mask0_2_106)">
<path fill-rule="evenodd" clip-rule="evenodd" d="M51.0551 22.9492C50.4166 22.9492 49.8312 22.8138 49.2991 22.543C48.9988 22.3867 48.7379 22.201 48.5165 21.9859C48.3765 21.85 48.093 21.9422 48.093 22.1369V22.4275C48.093 22.5595 47.9855 22.6666 47.8528 22.6666H46.7012C46.5687 22.6666 46.4612 22.5595 46.4612 22.4275V10.2588C46.4612 10.1267 46.5687 10.0197 46.7012 10.0197H47.8475C47.98 10.0197 48.0875 10.1267 48.0875 10.2588V14.5417C48.0875 14.7364 48.3719 14.8292 48.5122 14.6937C48.7355 14.4782 48.9984 14.2922 49.2991 14.1357C49.8312 13.8648 50.4166 13.7294 51.0551 13.7294C52.2021 13.7294 53.1717 14.1769 53.964 15.0718C54.7799 15.9784 55.1878 17.0677 55.1878 18.3393C55.1878 19.6228 54.7799 20.7119 53.964 21.6069C53.1717 22.5018 52.2021 22.9492 51.0551 22.9492ZM50.789 21.4656C51.5695 21.4656 52.2257 21.1713 52.7579 20.5825C53.29 20.0055 53.5561 19.2578 53.5561 18.3393C53.5561 17.4327 53.29 16.685 52.7579 16.0962C52.2257 15.5074 51.5695 15.2131 50.789 15.2131C49.9968 15.2131 49.3346 15.5074 48.8024 16.0962C48.2821 16.685 48.022 17.4327 48.022 18.3393C48.022 19.2578 48.2821 20.0114 48.8024 20.6001C49.3346 21.1771 49.9968 21.4656 50.789 21.4656ZM40.8538 22.9492C39.5767 22.9492 38.5243 22.5136 37.6966 21.6423C36.8688 20.7709 36.455 19.6699 36.455 18.3393C36.455 17.0206 36.857 15.9255 37.6611 15.0541C38.4652 14.171 39.4939 13.7294 40.7474 13.7294C42.0363 13.7294 43.0592 14.1474 43.8159 14.9835C44.6315 15.858 45.0214 17.1735 44.9703 18.3699C44.9637 18.5233 44.8337 18.6396 44.6795 18.6396H38.4154C38.2548 18.6396 38.1247 18.7719 38.1413 18.9309C38.216 19.6452 38.4935 20.2311 38.9736 20.6884C39.5176 21.2065 40.168 21.4656 40.9248 21.4656C41.8903 21.4656 42.6624 21.0196 43.2411 20.1274C43.3184 20.0082 43.4723 19.9598 43.6005 20.022L44.5755 20.4956C44.7129 20.5624 44.768 20.7298 44.6883 20.8598C44.3115 21.4753 43.8137 21.9657 43.1951 22.331C42.5093 22.7432 41.7288 22.9492 40.8538 22.9492ZM38.3409 16.9561C38.2831 17.1284 38.4194 17.2973 38.6019 17.2973H42.9222C43.0885 17.2973 43.2214 17.1555 43.1876 16.9934C43.0908 16.5278 42.8568 16.1346 42.4856 15.8136C42.0481 15.4132 41.4568 15.2131 40.7119 15.2131C40.097 15.2131 39.5649 15.4014 39.1156 15.7783C38.7594 16.0851 38.5011 16.4777 38.3409 16.9561ZM35.9547 14.344C36.0078 14.18 35.8849 14.012 35.7119 14.012H34.5857C34.4726 14.012 34.3729 14.0862 34.341 14.1943L32.6799 19.8091C32.6133 20.0342 32.2947 20.039 32.2214 19.8158L30.3728 14.1871C30.3386 14.0826 30.2407 14.012 30.1304 14.012H28.8147C28.7047 14.012 28.607 14.0824 28.5725 14.1865L26.7073 19.8196C26.6335 20.0423 26.3154 20.0372 26.249 19.8123L24.5869 14.1943C24.5549 14.0862 24.4553 14.012 24.3421 14.012H23.1805C23.0074 14.012 22.8846 14.18 22.9377 14.344L25.5756 22.4905C25.6096 22.5955 25.7078 22.6666 25.8185 22.6666H27.0964C27.2071 22.6666 27.3053 22.5954 27.3393 22.4904L29.2008 16.7299C29.2722 16.5091 29.5859 16.5087 29.6578 16.7293L31.5352 22.491C31.5693 22.5958 31.6672 22.6666 31.7778 22.6666H33.0739C33.1847 22.6666 33.2827 22.5955 33.3167 22.4905L35.9547 14.344ZM86.5136 22.1544C86.9861 22.5902 87.5773 22.808 88.2866 22.808C88.7569 22.808 89.1771 22.7556 89.5494 22.6508C89.6766 22.6151 89.7407 22.4783 89.6968 22.3544L89.3492 21.3738C89.3019 21.2423 89.1529 21.1789 89.019 21.2209C88.983 21.2323 88.9459 21.2432 88.9082 21.2537C88.7889 21.2772 88.6652 21.2889 88.5347 21.2889C88.2512 21.2889 87.9969 21.1889 87.7725 20.9887C87.5475 20.7767 87.4356 20.3823 87.4356 19.8054V15.7347C87.4356 15.6027 87.543 15.4957 87.6758 15.4957H89.3239C89.4566 15.4957 89.5641 15.3886 89.5641 15.2566V14.2511C89.5641 14.1191 89.4566 14.012 89.3239 14.012H87.6758C87.543 14.012 87.4356 13.905 87.4356 13.773V10.2588C87.4356 10.1267 87.3281 10.0197 87.1948 10.0197H86.0434C85.9112 10.0197 85.8038 10.1267 85.8038 10.2588V13.773C85.8038 13.905 85.6963 14.012 85.563 14.012H84.5184C84.3857 14.012 84.2783 14.1191 84.2783 14.2511V15.2566C84.2783 15.3886 84.3857 15.4957 84.5184 15.4957H85.563C85.6963 15.4957 85.8038 15.6027 85.8038 15.7347V20.3352C85.815 21.1123 86.0518 21.7188 86.5136 22.1544ZM63.2081 21.8895C64.0007 21.183 64.3967 20.2999 64.3967 19.2401C64.3967 18.5925 64.2133 18.0096 63.8466 17.4915C63.6778 17.2452 63.4359 16.932 62.7249 16.5352C62.5748 16.4514 62.5708 16.228 62.7131 16.1311C63.5636 15.5506 63.9889 14.6719 63.9889 13.6411C63.9889 12.6638 63.6278 11.869 62.9066 11.2567C62.1737 10.6208 61.2692 10.3029 60.1931 10.3029C59.3297 10.3029 58.5788 10.5325 57.9403 10.9917C57.3711 11.4009 56.9481 11.9223 56.6696 12.5559C56.6123 12.6872 56.6786 12.8372 56.8108 12.893L57.8194 13.3183C57.9623 13.3785 58.1254 13.3061 58.1889 13.1655C58.5866 12.2933 59.2543 11.8572 60.1931 11.8572C60.8316 11.8572 61.3457 12.0221 61.7361 12.3517C62.1264 12.6814 62.3211 13.1112 62.3211 13.6411C62.3211 14.2181 62.1146 14.6891 61.7006 15.0541C61.2866 15.4074 60.7545 15.584 60.1043 15.584H59.4518C59.3027 15.584 59.1818 15.7044 59.1818 15.853V16.834C59.1818 16.9825 59.3027 17.1029 59.4518 17.1029H60.2286C60.9143 17.1029 61.4993 17.3091 61.9841 17.7211C62.4808 18.1333 62.7294 18.6396 62.7294 19.2401C62.7294 19.8406 62.4926 20.3529 62.0196 20.7767C61.5347 21.1889 60.9615 21.3949 60.2994 21.3949C59.6964 21.3949 59.1761 21.2183 58.7385 20.8651C58.3763 20.5544 58.0995 20.1327 57.9083 19.6002C57.8537 19.4482 57.6844 19.3655 57.5348 19.4276L56.5481 19.8369C56.4216 19.8894 56.3535 20.0282 56.3979 20.1573C56.6736 20.96 57.1523 21.6198 57.834 22.1368C58.5669 22.6784 59.3888 22.9492 60.2994 22.9492C61.4582 22.9492 62.4279 22.596 63.2081 21.8895ZM67.2924 20.0173C67.2924 19.5462 67.5113 19.1518 67.9483 18.8338C68.3978 18.516 68.9535 18.357 69.6156 18.357C70.4655 18.357 71.1399 18.5313 71.6394 18.8798C71.7069 18.927 71.7452 19.0056 71.7407 19.0877C71.7081 19.7163 71.4375 20.2675 70.9284 20.7415C70.3963 21.2477 69.7871 21.5009 69.1014 21.5009C68.6166 21.5009 68.1908 21.3597 67.8246 21.077C67.4696 20.7944 67.2924 20.4412 67.2924 20.0173ZM72.2588 14.7009C71.5613 14.0532 70.6089 13.7294 69.4029 13.7294C67.9489 13.7294 66.8284 14.2275 66.0409 15.2236C65.9559 15.3308 65.988 15.4859 66.1039 15.5586L67.1333 16.2039C67.2418 16.272 67.3847 16.2421 67.4651 16.1421C67.9815 15.4992 68.6571 15.1777 69.4918 15.1777C70.0948 15.1777 70.6208 15.3779 71.0702 15.7783C71.5224 16.1693 71.6828 16.6393 71.7283 17.1702C71.7441 17.3527 71.5444 17.4707 71.3745 17.4001C70.8126 17.1667 70.1381 17.05 69.3495 17.05C68.2144 17.05 67.3043 17.3149 66.618 17.8448C65.9441 18.3746 65.6072 19.087 65.6072 19.982C65.6072 20.8297 65.9267 21.5363 66.5651 22.1014C67.2154 22.6666 68.0192 22.9492 68.9771 22.9492C70.1004 22.9492 70.9993 22.4547 71.6732 21.4656V22.4275C71.6732 22.5595 71.7806 22.6666 71.9134 22.6666H73.0648C73.1976 22.6666 73.305 22.5595 73.305 22.4275V17.3326C73.305 16.214 72.9563 15.3367 72.2588 14.7009ZM82.773 22.4126C82.773 22.5529 82.6588 22.6666 82.5182 22.6666H81.396C81.2554 22.6666 81.1412 22.5529 81.1412 22.4126V22.1288C81.1412 21.9459 80.8628 21.8581 80.7317 21.9864C80.5258 22.1881 80.2783 22.3677 79.9881 22.5254C79.4796 22.808 78.9475 22.9492 78.3917 22.9492C77.3275 22.9492 76.5056 22.649 75.9263 22.0484C75.3587 21.4361 75.0746 20.5707 75.0746 19.452V14.2661C75.0746 14.1258 75.1888 14.012 75.33 14.012H76.4516C76.5923 14.012 76.7064 14.1258 76.7064 14.2661V19.3461C76.7419 20.7591 77.4574 21.4656 78.8524 21.4656C79.5032 21.4656 80.0471 21.2065 80.4842 20.6884C80.9224 20.1586 81.1412 19.5286 81.1412 18.7986V14.2661C81.1412 14.1258 81.2554 14.012 81.396 14.012H82.5182C82.6588 14.012 82.773 14.1258 82.773 14.2661V22.4126ZM91.2026 10.2588C91.2026 10.1267 91.3101 10.0197 91.4434 10.0197H92.5948C92.727 10.0197 92.8344 10.1267 92.8344 10.2588V14.5498C92.8344 14.7329 93.1112 14.8198 93.2417 14.6906C93.4442 14.4897 93.6872 14.3106 93.9701 14.1533C94.4899 13.8708 95.0276 13.7294 95.584 13.7294C96.6482 13.7294 97.4638 14.0356 98.0314 14.6479C98.6108 15.2484 98.9004 16.108 98.9004 17.2266V22.4275C98.9004 22.5595 98.793 22.6666 98.6608 22.6666H97.5094C97.3761 22.6666 97.2686 22.5595 97.2686 22.4275V17.5445C97.2686 15.9902 96.5773 15.2131 95.1936 15.2131C94.5315 15.2131 93.9701 15.4898 93.5089 16.0432C93.0595 16.5848 92.8344 17.2207 92.8344 17.9508V22.4275C92.8344 22.5595 92.727 22.6666 92.5948 22.6666H91.4434C91.3101 22.6666 91.2026 22.5595 91.2026 22.4275V10.2588Z" fill="white"/>
<path d="M16.5233 21.2948C16.6183 21.6536 17.1213 21.6536 17.2163 21.2948L19.9507 10.9626C20.0766 10.4868 19.7225 10.0197 19.236 10.0197H17.5502C17.2154 10.0197 16.9222 10.2474 16.8356 10.5749L15.2936 16.4013C15.2723 16.4821 15.2723 16.5673 15.2936 16.648L16.5233 21.2948Z" fill="white"/>
<path d="M6.96696 16.3938C6.98833 16.4746 6.98833 16.5597 6.96696 16.6405L5.73722 21.2872C5.64221 21.6461 5.13924 21.6461 5.04426 21.2872L2.31187 10.9626C2.18597 10.4868 2.54003 10.0197 3.02648 10.0197H4.71238C5.04722 10.0197 5.34031 10.2474 5.42698 10.5749L6.96696 16.3938Z" fill="white"/>
<path d="M9.27271 23.5659C9.18901 23.8831 8.90596 24.1037 8.58258 24.1037H6.85733C6.38753 24.1037 6.04559 23.6511 6.1672 23.1903L9.48719 10.6079C9.57871 10.2609 9.88831 10.0197 10.242 10.0197H12.2486C12.6023 10.0197 12.9119 10.2609 13.0035 10.6079L16.3234 23.1903C16.445 23.6511 16.103 24.1037 15.6333 24.1037H13.908C13.5847 24.1037 13.3016 23.8831 13.2179 23.5659L11.5796 17.3568C11.4879 17.0095 11.0026 17.0095 10.911 17.3568L9.27271 23.5659Z" fill="white"/>
<path d="M10.6392 22.2568C10.5157 22.2568 10.4258 22.144 10.4578 22.0292L11.0637 19.8511C11.1134 19.6724 11.3767 19.6724 11.4265 19.8511L12.0323 22.0292C12.0643 22.144 11.9745 22.2568 11.851 22.2568H10.6392Z" fill="white"/>
</g>
</svg>
