<svg width="93" height="31" viewBox="0 0 93 31" fill="none" xmlns="http://www.w3.org/2000/svg">
<g opacity="0.5">
<mask id="mask0_2_70" style="mask-type:alpha" maskUnits="userSpaceOnUse" x="0" y="0" width="93" height="31">
<path d="M93 0H0V30.6784H93V0Z" fill="white"/>
</mask>
<g mask="url(#mask0_2_70)">
<mask id="mask1_2_70" style="mask-type:alpha" maskUnits="userSpaceOnUse" x="5" y="7" width="92" height="17">
<path d="M96.0625 7.16852H5V23.6373H96.0625V7.16852Z" fill="white"/>
</mask>
<g mask="url(#mask1_2_70)">
<path fill-rule="evenodd" clip-rule="evenodd" d="M51.0716 21.3347C50.4712 21.3347 49.9208 21.2088 49.4204 20.957C49.138 20.8118 48.8928 20.6391 48.6845 20.4391C48.5529 20.3128 48.2862 20.3985 48.2862 20.5795V20.8497C48.2862 20.9724 48.1852 21.0719 48.0604 21.0719H46.9775C46.8529 21.0719 46.7518 20.9724 46.7518 20.8497V9.53702C46.7518 9.41425 46.8529 9.31476 46.9775 9.31476H48.0554C48.18 9.31476 48.2812 9.41425 48.2812 9.53702V13.5187C48.2812 13.6997 48.5485 13.7859 48.6805 13.6599C48.8904 13.4596 49.1377 13.2867 49.4204 13.1411C49.9208 12.8894 50.4712 12.7635 51.0716 12.7635C52.1502 12.7635 53.062 13.1794 53.807 14.0114C54.5742 14.8543 54.9578 15.8669 54.9578 17.049C54.9578 18.2422 54.5742 19.2548 53.807 20.0867C53.062 20.9187 52.1502 21.3347 51.0716 21.3347ZM50.8214 19.9554C51.5553 19.9554 52.1724 19.6818 52.6728 19.1344C53.1732 18.598 53.4234 17.9029 53.4234 17.049C53.4234 16.2062 53.1732 15.5111 52.6728 14.9638C52.1724 14.4164 51.5553 14.1427 50.8214 14.1427C50.0764 14.1427 49.4538 14.4164 48.9534 14.9638C48.4641 15.5111 48.2195 16.2062 48.2195 17.049C48.2195 17.9029 48.4641 18.6035 48.9534 19.1508C49.4538 19.6872 50.0764 19.9554 50.8214 19.9554ZM41.479 21.3347C40.2781 21.3347 39.2885 20.9297 38.5101 20.1196C37.7319 19.3096 37.3426 18.2861 37.3426 17.049C37.3426 15.8231 37.7206 14.805 38.4768 13.995C39.2329 13.174 40.2003 12.7635 41.3789 12.7635C42.5909 12.7635 43.5528 13.1521 44.2645 13.9293C45.0313 14.7424 45.398 15.9653 45.3499 17.0775C45.3438 17.2201 45.2215 17.3282 45.0764 17.3282H39.1861C39.0351 17.3282 38.9127 17.4512 38.9284 17.599C38.9986 18.2631 39.2595 18.8077 39.711 19.2329C40.2225 19.7146 40.8341 19.9554 41.5457 19.9554C42.4536 19.9554 43.1797 19.5408 43.7238 18.7114C43.7965 18.6005 43.9413 18.5555 44.0618 18.6134L44.9786 19.0537C45.1078 19.1157 45.1597 19.2714 45.0848 19.3922C44.7304 19.9644 44.2623 20.4203 43.6806 20.76C43.0357 21.1431 42.3018 21.3347 41.479 21.3347ZM39.116 15.7632C39.0617 15.9234 39.1899 16.0804 39.3614 16.0804H43.424C43.5804 16.0804 43.7053 15.9485 43.6736 15.7978C43.5825 15.365 43.3625 14.9994 43.0135 14.701C42.6021 14.3288 42.0461 14.1427 41.3456 14.1427C40.7673 14.1427 40.267 14.3179 39.8445 14.6682C39.5096 14.9534 39.2667 15.3184 39.116 15.7632ZM36.8722 13.3348C36.9222 13.1824 36.8066 13.0262 36.6439 13.0262H35.5849C35.4785 13.0262 35.3849 13.0952 35.3548 13.1956L33.7928 18.4155C33.7301 18.6248 33.4305 18.6291 33.3616 18.4217L31.6234 13.189C31.5912 13.0919 31.4991 13.0262 31.3954 13.0262H30.1583C30.0548 13.0262 29.9629 13.0916 29.9305 13.1884L28.1765 18.4252C28.1072 18.6322 27.8081 18.6275 27.7456 18.4184L26.1827 13.1956C26.1526 13.0952 26.0589 13.0262 25.9526 13.0262H24.8602C24.6975 13.0262 24.5819 13.1824 24.6319 13.3348L27.1125 20.9082C27.1444 21.0058 27.2367 21.0719 27.3408 21.0719H28.5424C28.6466 21.0719 28.7389 21.0058 28.7708 20.9081L30.5213 15.5528C30.5884 15.3476 30.8834 15.3472 30.951 15.5523L32.7164 20.9087C32.7485 21.0061 32.8406 21.0719 32.9446 21.0719H34.1633C34.2675 21.0719 34.3597 21.0058 34.3916 20.9082L36.8722 13.3348ZM84.4142 20.5958C84.8591 21.0008 85.4144 21.2033 86.082 21.2033C86.5236 21.2033 86.9193 21.1546 87.2694 21.0572C87.389 21.024 87.4493 20.8969 87.408 20.7817L87.0806 19.8701C87.0367 19.7478 86.8965 19.6889 86.7706 19.728C86.7363 19.7385 86.7014 19.7487 86.6659 19.7584C86.5543 19.7803 86.4374 19.7912 86.3152 19.7912C86.0486 19.7912 85.8096 19.6982 85.598 19.512C85.3869 19.315 85.2817 18.9483 85.2817 18.412V14.6277C85.2817 14.505 85.3827 14.4055 85.507 14.4055H87.0573C87.1816 14.4055 87.2827 14.306 87.2827 14.1832V13.2485C87.2827 13.1257 87.1816 13.0262 87.0573 13.0262H85.507C85.3827 13.0262 85.2817 12.9267 85.2817 12.804V9.53702C85.2817 9.41425 85.1807 9.31476 85.0553 9.31476H83.9726C83.8477 9.31476 83.7467 9.41425 83.7467 9.53702V12.804C83.7467 12.9267 83.6457 13.0262 83.5209 13.0262H82.5381C82.4138 13.0262 82.3128 13.1257 82.3128 13.2485V14.1832C82.3128 14.306 82.4138 14.4055 82.5381 14.4055H83.5209C83.6457 14.4055 83.7467 14.505 83.7467 14.6277V18.9045C83.7578 19.627 83.9805 20.1908 84.4142 20.5958ZM62.4998 20.3495C63.2445 19.6927 63.6169 18.8717 63.6169 17.8865C63.6169 17.2844 63.4445 16.7426 63.1001 16.2609C62.9415 16.032 62.7135 15.7408 62.0449 15.3719C61.9037 15.294 61.9005 15.0863 62.0338 14.9962C62.8336 14.4566 63.2334 13.6396 63.2334 12.6814C63.2334 11.7728 62.8944 11.0339 62.2163 10.4647C61.5266 9.87358 60.676 9.57801 59.6642 9.57801C58.8522 9.57801 58.1466 9.79149 57.5458 10.2184C57.011 10.5988 56.6127 11.0835 56.3514 11.6726C56.2975 11.7946 56.3594 11.934 56.4842 11.9859L57.432 12.3813C57.5664 12.4372 57.7198 12.37 57.7801 12.2393C58.1535 11.4284 58.7819 11.023 59.6642 11.023C60.2645 11.023 60.7485 11.1763 61.115 11.4827C61.4821 11.7892 61.6657 12.1888 61.6657 12.6814C61.6657 13.2178 61.471 13.6556 61.0817 13.995C60.693 14.3234 60.1926 14.4876 59.5806 14.4876H58.9676C58.8274 14.4876 58.7137 14.5995 58.7137 14.7376V15.6496C58.7137 15.7877 58.8274 15.8997 58.9676 15.8997H59.6975C60.3423 15.8997 60.8929 16.0913 61.3488 16.4744C61.8159 16.8575 62.0491 17.3282 62.0491 17.8865C62.0491 18.4448 61.827 18.921 61.3822 19.315C60.9262 19.6982 60.3872 19.8897 59.7641 19.8897C59.1971 19.8897 58.7078 19.7255 58.2963 19.3972C57.9557 19.1083 57.6955 18.7163 57.5161 18.2213C57.4648 18.0799 57.3051 18.003 57.1644 18.0607L56.2366 18.4413C56.1176 18.4901 56.0542 18.6191 56.0959 18.7392C56.3551 19.4853 56.8053 20.0988 57.4458 20.5794C58.1355 21.0829 58.9083 21.3347 59.7641 21.3347C60.8537 21.3347 61.7656 21.0063 62.4998 20.3495ZM66.3399 18.609C66.3399 18.1711 66.5456 17.8044 66.9572 17.5088C67.3798 17.2133 67.9024 17.0655 68.5249 17.0655C69.3236 17.0655 69.9578 17.2275 70.4275 17.5515C70.4915 17.5954 70.5275 17.6684 70.5233 17.7448C70.4926 18.3292 70.2376 18.8416 69.7589 19.2822C69.2586 19.7529 68.6863 19.9882 68.041 19.9882C67.5855 19.9882 67.1851 19.8569 66.8403 19.5942C66.5065 19.3315 66.3399 19.0031 66.3399 18.609ZM71.0099 13.6666C70.354 13.0645 69.459 12.7635 68.325 12.7635C66.9572 12.7635 65.9035 13.2265 65.163 14.1525C65.0837 14.2522 65.1138 14.3964 65.2228 14.464L66.1902 15.0638C66.2928 15.1272 66.4266 15.0994 66.5023 15.0064C66.9884 14.4087 67.6236 14.1099 68.408 14.1099C68.9751 14.1099 69.4701 14.296 69.8928 14.6682C70.318 15.0317 70.4682 15.4687 70.5116 15.9622C70.5264 16.1318 70.3381 16.2415 70.1784 16.1759C69.6505 15.9589 69.0158 15.8504 68.2747 15.8504C67.2074 15.8504 66.351 16.0967 65.7062 16.5893C65.0726 17.0819 64.7557 17.7442 64.7557 18.5761C64.7557 19.3643 65.0556 20.0211 65.656 20.5465C66.2674 21.0719 67.0238 21.3347 67.9246 21.3347C68.9809 21.3347 69.8261 20.8749 70.4598 19.9554V20.8497C70.4598 20.9724 70.5608 21.0719 70.6856 21.0719H71.7684C71.8932 21.0719 71.9942 20.9724 71.9942 20.8497V16.1131C71.9942 15.0733 71.6663 14.2577 71.0099 13.6666ZM80.8968 20.8358C80.8968 20.9663 80.7894 21.0719 80.6572 21.0719H79.6019C79.4697 21.0719 79.3623 20.9663 79.3623 20.8358V20.572C79.3623 20.4019 79.1005 20.3203 78.9778 20.4396C78.7842 20.627 78.5515 20.794 78.278 20.9406C77.8004 21.2033 77.3 21.3347 76.7769 21.3347C75.7761 21.3347 75.0034 21.0555 74.4586 20.4972C73.9249 19.928 73.6583 19.1235 73.6583 18.0835V13.2624C73.6583 13.1319 73.7657 13.0262 73.8979 13.0262H74.9526C75.0854 13.0262 75.1927 13.1319 75.1927 13.2624V17.9851C75.226 19.2986 75.8989 19.9554 77.2106 19.9554C77.8221 19.9554 78.3336 19.7146 78.7451 19.2329C79.1566 18.7403 79.3623 18.1547 79.3623 17.476V13.2624C79.3623 13.1319 79.4697 13.0262 79.6019 13.0262H80.6572C80.7894 13.0262 80.8968 13.1319 80.8968 13.2624V20.8358ZM88.8235 9.53702C88.8235 9.41425 88.9245 9.31476 89.0498 9.31476H90.1326C90.2574 9.31476 90.3584 9.41425 90.3584 9.53702V13.5262C90.3584 13.6963 90.6187 13.7772 90.7409 13.6571C90.9318 13.4703 91.1598 13.3037 91.4258 13.1575C91.9151 12.8949 92.4208 12.7635 92.9434 12.7635C93.9446 12.7635 94.7116 13.0481 95.2448 13.6174C95.7901 14.1756 96.0625 14.9747 96.0625 16.0146V20.8497C96.0625 20.9724 95.9615 21.0719 95.8372 21.0719H94.7539C94.6291 21.0719 94.5281 20.9724 94.5281 20.8497V16.3102C94.5281 14.8652 93.8775 14.1427 92.5763 14.1427C91.9537 14.1427 91.4258 14.4 90.9921 14.9145C90.5695 15.418 90.3584 16.0092 90.3584 16.6878V20.8497C90.3584 20.9724 90.2574 21.0719 90.1326 21.0719H89.0498C88.9245 21.0719 88.8235 20.9724 88.8235 20.8497V9.53702Z" fill="#797979"/>
<path d="M18.6007 19.7966C18.6901 20.1302 19.163 20.1302 19.2524 19.7966L21.8236 10.1913C21.942 9.74902 21.6091 9.31476 21.1516 9.31476H19.5663C19.2514 9.31476 18.9758 9.52644 18.8943 9.83084L17.4444 15.2474C17.4243 15.3225 17.4243 15.4017 17.4444 15.4768L18.6007 19.7966Z" fill="#0364FF"/>
<path d="M9.61475 15.2405C9.63485 15.3156 9.63485 15.3947 9.61475 15.4698L8.45838 19.7896C8.36905 20.1232 7.89608 20.1232 7.80676 19.7896L5.23741 10.1913C5.11901 9.74905 5.45195 9.31479 5.90937 9.31479H7.49469C7.80955 9.31479 8.08515 9.52647 8.16665 9.83087L9.61475 15.2405Z" fill="#0364FF"/>
<path d="M11.7822 21.908C11.7035 22.2029 11.4374 22.4079 11.1333 22.4079H9.51097C9.0692 22.4079 8.74766 21.9872 8.86201 21.5588L11.9839 9.86152C12.07 9.53898 12.3611 9.31476 12.6936 9.31476H14.5806C14.9131 9.31476 15.2043 9.53898 15.2904 9.86152L18.4123 21.5588C18.5266 21.9872 18.205 22.4079 17.7633 22.4079H16.1409C15.8369 22.4079 15.5707 22.2029 15.492 21.908L13.9515 16.1357C13.8652 15.8128 13.4089 15.8128 13.3228 16.1357L11.7822 21.908Z" fill="#0364FF"/>
<path d="M13.0674 20.691C12.9513 20.691 12.8668 20.5861 12.8969 20.4793L13.4666 18.4545C13.5133 18.2883 13.7609 18.2883 13.8077 18.4545L14.3774 20.4793C14.4075 20.5861 14.323 20.691 14.2069 20.691H13.0674Z" fill="#0364FF"/>
</g>
</g>
</g>
</svg>
