<svg width="108" height="33" viewBox="0 0 108 33" fill="none" xmlns="http://www.w3.org/2000/svg">
<path d="M0 32.1999H7.35016L13.3765 21.6422L19.4226 32.1999H26.7728L17.0713 15.8462L26.18 0.741573H18.8299L13.3963 10.2649L7.94292 0.741573H0.592755L9.68167 15.8658L0 32.1999Z" fill="white"/>
<path d="M46.2744 8.78179L46.0176 11.3187C44.18 9.13306 41.5521 8.00118 38.5093 8.00118C31.8112 8.00118 26.9111 13.641 26.9111 20.5103C26.9111 26.6381 31.1394 32.9805 38.4501 32.9805C41.5917 32.9805 44.1998 31.7901 46.0176 29.6239L46.2744 32.1999H51.9649V8.78179H46.2744ZM39.4973 26.9698C35.5258 26.9698 32.9967 23.7108 32.9967 20.4323C32.9967 16.9781 35.8222 14.0118 39.4973 14.0118C42.8364 14.0118 45.8793 16.4512 45.8793 20.4518C45.8793 24.2768 43.1131 26.9698 39.4973 26.9698Z" fill="white"/>
<path d="M74.8057 0V11.1821C72.9682 9.09403 70.3996 8.0207 67.4358 8.0207C60.7376 8.0207 55.8375 13.6606 55.8375 20.5299C55.8375 26.6576 60.0659 33 67.3765 33C70.5181 33 73.1262 31.8096 74.944 29.6434L75.2009 32.1999H80.7333V0H74.8057ZM68.4237 26.9894C64.4522 26.9894 61.9232 23.7303 61.9232 20.4518C61.9232 16.9976 64.7486 14.0313 68.4237 14.0313C71.7629 14.0313 74.8057 16.4707 74.8057 20.4713C74.8057 24.2963 72.0395 26.9894 68.4237 26.9894Z" fill="white"/>
<path d="M108 19.5541C108 13.8557 103.87 8.00118 96.7574 8.00118C90.0198 8.00118 84.6059 13.2507 84.6059 20.4908C84.6059 27.6724 89.9407 32.9805 96.7772 32.9805C99.5829 32.9805 103.357 32.0828 106.321 28.9409L102.231 24.9208C100.156 26.7552 98.2195 27.126 96.9155 27.126C94.09 27.126 91.8178 25.4086 90.9089 22.8717H107.427C107.783 21.9545 108 20.8421 108 19.5541ZM96.7376 13.8557C99.5631 13.8557 101.341 15.6316 101.974 18.1881H90.8101C91.64 15.5535 93.9517 13.8557 96.7376 13.8557Z" fill="white"/>
</svg>
